<svg width="69" height="69" viewBox="0 0 69 69" fill="none" xmlns="http://www.w3.org/2000/svg">
<path fill-rule="evenodd" clip-rule="evenodd" d="M34.5 0C15.456 0 0 15.456 0 34.5C0 53.544 15.456 69 34.5 69C53.544 69 69 53.544 69 34.5C69 15.456 53.544 0 34.5 0ZM27.6 48.3C25.7025 48.3 24.15 46.7475 24.15 44.85V24.15C24.15 22.2525 25.7025 20.7 27.6 20.7C29.4975 20.7 31.05 22.2525 31.05 24.15V44.85C31.05 46.7475 29.4975 48.3 27.6 48.3ZM37.95 44.85C37.95 46.7475 39.5025 48.3 41.4 48.3C43.2975 48.3 44.85 46.7475 44.85 44.85V24.15C44.85 22.2525 43.2975 20.7 41.4 20.7C39.5025 20.7 37.95 22.2525 37.95 24.15V44.85Z" fill="#706D8B"/>
</svg>
