<svg width="69" height="70" viewBox="0 0 69 70" fill="none" xmlns="http://www.w3.org/2000/svg">
<path fill-rule="evenodd" clip-rule="evenodd" d="M21.0711 66.9301C25.3195 68.7278 29.887 69.6495 34.5001 69.6401C39.113 69.6492 43.6802 68.7267 47.9281 66.9281C52.0272 65.1952 55.7519 62.6847 58.8961 59.5351C62.0461 56.392 64.5567 52.6679 66.2891 48.5691C68.0866 44.3206 69.0086 39.7532 69.0001 35.1401C69.0087 30.5277 68.087 25.961 66.2901 21.7131C64.558 17.6141 62.0473 13.89 58.8971 10.7471C55.7544 7.5954 52.0294 5.08422 47.9291 3.3531C43.6811 1.55365 39.1134 0.630859 34.5001 0.640096C29.887 0.630033 25.3194 1.55144 21.0711 3.3491C16.9713 5.08025 13.247 7.59144 10.1051 10.7431C6.95451 13.8859 4.44347 17.61 2.71106 21.7091C0.913276 25.9582 -0.00878535 30.5263 6.30852e-05 35.1401C-0.00878535 39.7539 0.913276 44.322 2.71106 48.5711C4.44381 52.67 6.9548 56.394 10.1051 59.5371C13.2483 62.6869 16.9723 65.1976 21.0711 66.9301ZM27.5001 27.6401C27.5034 26.5369 28.3969 25.6434 29.5001 25.6401C29.8511 25.6376 30.1963 25.7291 30.5001 25.9051L43.5091 33.4371C44.1309 33.7908 44.5133 34.4527 44.5091 35.1681C44.5129 35.8831 44.1306 36.5446 43.5091 36.8981L30.5001 44.4311C30.1968 44.6088 29.8516 44.7024 29.5001 44.7021C28.3969 44.6988 27.5034 43.8053 27.5001 42.7021V27.6401Z" fill="#FBFAFD"/>
</svg>
